# xmcd CD database file
#
# Track frame offsets:
#	150
#	13603
#	28630
#	42418
#	58175
#	70890
#	83573
#	96050
#	107328
#	121183
#	141725
#	157678
#	175293
#	192093
#
# Disc length: 2773 seconds
#
# Revision: 2
# Processed by: cddbd v1.4PL0 Copyright (c) Steve Scherf et al.
# Submitted via: CDex 1.50beta9
#
DISCID=b10ad30e
DTITLE=Percy Sledge - Percy Sledge 14 Greatest Hits
DYEAR=1900
DGENRE=
TTITLE0=When A Man Loves A Woman
TTITLE1=Warm And Tender Love
TTITLE2=Take Time To Know Her
TTITLE3=Out Of Left Field
TTITLE4=The Dark End Of The Street
TTITLE5=Cover Me
TTITLE6=Sudden Stop
TTITLE7=Baby Help Me
TTITLE8=Ny Special Prayer
TTITLE9=The Good Love
TTITLE10=Walking In The Sun
TTITLE11=Make It Good And Make It Last
TTITLE12=Behind Closed Doors
TTITLE13=Just Out Of Reach
EXTD=
EXTT0=
EXTT1=
EXTT2=
EXTT3=
EXTT4=
EXTT5=
EXTT6=
EXTT7=
EXTT8=
EXTT9=
EXTT10=
EXTT11=
EXTT12=
EXTT13=
PLAYORDER=
